<svg width="173" height="37" viewBox="0 0 173 37" fill="none" xmlns="http://www.w3.org/2000/svg">
<g clip-path="url(#clip0_285:893)">
<path d="M42.3706 12.1998V20.3793H53.2169V22.2821H42.3706V31.1159H40.1519V10.2942H54.532V12.1969H42.3706V12.1998Z" fill="white"/>
<path d="M56.5436 23.2935C56.5436 18.6537 59.9595 15.3511 64.5725 15.3511C69.1856 15.3511 72.5727 18.6537 72.5727 23.2935C72.5727 27.9332 69.1885 31.2645 64.5725 31.2645C59.9566 31.2645 56.5436 27.9332 56.5436 23.2935ZM70.4144 23.2935C70.4144 19.6337 67.928 17.1967 64.5725 17.1967C61.2171 17.1967 58.699 19.6365 58.699 23.2935C58.699 26.9504 61.2171 29.3903 64.5725 29.3903C67.928 29.3903 70.4144 26.9533 70.4144 23.2935Z" fill="white"/>
<path d="M86.3832 31.1159L81.3787 24.5734L76.3455 31.1159H73.9484L80.1787 23.0849L74.2477 15.4711H76.6448L81.3787 21.5993L86.1127 15.4711H88.4494L82.5183 23.0849L88.8091 31.1159H86.3832Z" fill="white"/>
<path d="M108.315 23.2934C108.315 28.0532 104.959 31.2644 100.464 31.2644C97.9459 31.2644 95.7905 30.193 94.4725 28.1703V36.8841H92.3458V15.471H94.3833V18.5651C95.6725 16.4824 97.8596 15.3539 100.464 15.3539C104.959 15.351 108.315 18.5651 108.315 23.2934ZM106.188 23.2934C106.188 19.6651 103.641 17.1966 100.314 17.1966C96.9589 17.1966 94.4408 19.6651 94.4408 23.2934C94.4408 26.9532 96.9589 29.3902 100.314 29.3902C103.641 29.3902 106.188 26.9532 106.188 23.2934Z" fill="white"/>
<path d="M124.465 21.4193V31.1159H122.427V28.676C121.469 30.2816 119.61 31.2644 117.006 31.2644C113.44 31.2644 111.253 29.4188 111.253 26.7132C111.253 24.3048 112.81 22.2821 117.334 22.2821H122.338V21.3307C122.338 18.6537 120.81 17.1966 117.875 17.1966C115.837 17.1966 113.921 17.9109 112.631 19.0422L111.673 17.4652C113.262 16.1281 115.598 15.3539 118.085 15.3539C122.157 15.351 124.465 17.3738 124.465 21.4193ZM122.335 26.4161V23.8591H117.391C114.335 23.8591 113.348 25.0505 113.348 26.6561C113.348 28.4703 114.816 29.6017 117.334 29.6017C119.731 29.5988 121.498 28.4703 122.335 26.4161Z" fill="white"/>
<path d="M138.545 30.1645C137.705 30.9074 136.448 31.2645 135.219 31.2645C132.252 31.2645 130.606 29.5989 130.606 26.7133V17.2567H127.788V15.4711H130.606V12.0513H132.732V15.4711H137.527V17.2567H132.732V26.5962C132.732 28.4418 133.691 29.4531 135.458 29.4531C136.327 29.4531 137.196 29.1846 137.794 28.6503L138.545 30.1645Z" fill="white"/>
<path d="M140.252 23.2935C140.252 18.6223 143.668 15.3511 148.37 15.3511C151.038 15.3511 153.283 16.391 154.543 18.4452L152.954 19.5166C151.875 17.9395 150.198 17.1967 148.37 17.1967C144.925 17.1967 142.407 19.6365 142.407 23.2935C142.407 26.9818 144.925 29.3903 148.37 29.3903C150.198 29.3903 151.875 28.676 152.954 27.099L154.543 28.1704C153.285 30.1931 151.038 31.2645 148.37 31.2645C143.668 31.2645 140.252 27.9646 140.252 23.2935Z" fill="white"/>
<path d="M172.969 22.0449V31.1158H170.843V22.2535C170.843 18.9508 169.104 17.2566 166.109 17.2566C162.724 17.2566 160.595 19.3394 160.595 22.9077V31.1158H158.468V9.04565H160.595V18.208C161.763 16.3938 163.83 15.351 166.497 15.351C170.333 15.351 172.969 17.5537 172.969 22.0449Z" fill="white"/>
<path opacity="0.8" d="M16.1052 10.2285L12.4965 10.2513L2.45593 0.283325V4.78878V16.9081L16.1109 34.9585L16.1052 10.2285Z" fill="white"/>
<path d="M2.45593 4.78882L7.99563 10.2885H2.45593V4.78882Z" fill="#A9A9A9"/>
<path d="M16.1052 10.2285L19.714 10.2513L29.7574 0.283325V4.78878V16.9081L16.0995 34.9585L16.1052 10.2285Z" fill="white"/>
<path d="M29.7573 4.78882L24.2147 10.2885H29.7573V4.78882Z" fill="#D2D2D1"/>
<path d="M2.45597 10.2885L16.1023 27.7817L13.003 30.8473L0.24585 14.0254L2.45597 10.2885Z" fill="#A9A9A9"/>
<path d="M29.7458 10.2885L16.1023 27.7817L19.2017 30.8473L31.9588 14.0254L29.7458 10.2885Z" fill="#D2D2D1"/>
</g>
<defs>
<clipPath id="clip0_285:893">
<rect width="172.723" height="36.6036" fill="white" transform="translate(0.24585 0.283325)"/>
</clipPath>
</defs>
</svg>
