<svg width="23" height="23" viewBox="0 0 23 23" fill="none" xmlns="http://www.w3.org/2000/svg">
<path fill-rule="evenodd" clip-rule="evenodd" d="M7.00113 0.215902C8.17413 0.161902 8.54813 0.149902 11.5361 0.149902C14.5241 0.149902 14.8981 0.162902 16.0701 0.215902C17.2421 0.268902 18.0421 0.455902 18.7421 0.726902C19.4751 1.0039 20.1401 1.4369 20.6901 1.9969C21.2501 2.5459 21.6821 3.2099 21.9581 3.9439C22.2301 4.6439 22.4161 5.4439 22.4701 6.6139C22.5241 7.7889 22.5361 8.1629 22.5361 11.1499C22.5361 14.1379 22.5231 14.5119 22.4701 15.6849C22.4171 16.8549 22.2301 17.6549 21.9581 18.3549C21.6821 19.089 21.2494 19.7541 20.6901 20.3039C20.1401 20.8639 19.4751 21.2959 18.7421 21.5719C18.0421 21.8439 17.2421 22.0299 16.0721 22.0839C14.8981 22.1379 14.5241 22.1499 11.5361 22.1499C8.54813 22.1499 8.17413 22.1369 7.00113 22.0839C5.83113 22.0309 5.03113 21.8439 4.33113 21.5719C3.59705 21.2959 2.93195 20.8632 2.38213 20.3039C1.82251 19.7546 1.38945 19.0898 1.11313 18.3559C0.842133 17.6559 0.656133 16.8559 0.602133 15.6859C0.548133 14.5109 0.536133 14.1369 0.536133 11.1499C0.536133 8.1619 0.549133 7.7879 0.602133 6.6159C0.655133 5.4439 0.842133 4.6439 1.11313 3.9439C1.38986 3.20998 1.82325 2.54522 2.38313 1.9959C2.93217 1.4364 3.5966 1.00335 4.33013 0.726902C5.03013 0.455902 5.83013 0.269902 7.00013 0.215902H7.00113ZM15.9811 2.1959C14.8211 2.1429 14.4731 2.1319 11.5361 2.1319C8.59913 2.1319 8.25113 2.1429 7.09113 2.1959C6.01813 2.2449 5.43613 2.4239 5.04813 2.5749C4.53513 2.7749 4.16813 3.0119 3.78313 3.3969C3.41818 3.75195 3.13731 4.18418 2.96113 4.6619C2.81013 5.0499 2.63113 5.6319 2.58213 6.7049C2.52913 7.8649 2.51813 8.2129 2.51813 11.1499C2.51813 14.0869 2.52913 14.4349 2.58213 15.5949C2.63113 16.6679 2.81013 17.2499 2.96113 17.6379C3.13713 18.1149 3.41813 18.5479 3.78313 18.9029C4.13813 19.2679 4.57113 19.5489 5.04813 19.7249C5.43613 19.8759 6.01813 20.0549 7.09113 20.1039C8.25113 20.1569 8.59813 20.1679 11.5361 20.1679C14.4741 20.1679 14.8211 20.1569 15.9811 20.1039C17.0541 20.0549 17.6361 19.8759 18.0241 19.7249C18.5371 19.5249 18.9041 19.2879 19.2891 18.9029C19.6541 18.5479 19.9351 18.1149 20.1111 17.6379C20.2621 17.2499 20.4411 16.6679 20.4901 15.5949C20.5431 14.4349 20.5541 14.0869 20.5541 11.1499C20.5541 8.2129 20.5431 7.8649 20.4901 6.7049C20.4411 5.6319 20.2621 5.0499 20.1111 4.6619C19.9111 4.1489 19.6741 3.7819 19.2891 3.3969C18.9341 3.03197 18.5018 2.75111 18.0241 2.5749C17.6361 2.4239 17.0541 2.2449 15.9811 2.1959V2.1959ZM10.1311 14.5409C10.9158 14.8675 11.7895 14.9116 12.6031 14.6656C13.4166 14.4196 14.1195 13.8988 14.5917 13.1921C15.064 12.4855 15.2762 11.6368 15.1922 10.791C15.1082 9.94524 14.7331 9.15488 14.1311 8.5549C13.7474 8.17138 13.2833 7.87771 12.7725 7.69505C12.2616 7.51238 11.7166 7.44526 11.1766 7.49852C10.6367 7.55177 10.1153 7.72408 9.64994 8.00303C9.18459 8.28199 8.78688 8.66065 8.48544 9.11175C8.18399 9.56286 7.98632 10.0752 7.90665 10.6119C7.82698 11.1485 7.86728 11.6962 8.02467 12.2154C8.18206 12.7346 8.45261 13.2125 8.81685 13.6146C9.18109 14.0167 9.62996 14.3331 10.1311 14.5409ZM7.53813 7.1519C8.06316 6.62688 8.68645 6.21041 9.37243 5.92626C10.0584 5.64212 10.7936 5.49588 11.5361 5.49588C12.2786 5.49588 13.0139 5.64212 13.6998 5.92626C14.3858 6.2104 15.0091 6.62688 15.5341 7.1519C16.0592 7.67693 16.4756 8.30022 16.7598 8.9862C17.0439 9.67218 17.1902 10.4074 17.1902 11.1499C17.1902 11.8924 17.0439 12.6276 16.7598 13.3136C16.4756 13.9996 16.0592 14.6229 15.5341 15.1479C14.4738 16.2082 13.0357 16.8039 11.5361 16.8039C10.0366 16.8039 8.59847 16.2082 7.53813 15.1479C6.4778 14.0876 5.88211 12.6494 5.88211 11.1499C5.88211 9.65036 6.4778 8.21224 7.53813 7.1519V7.1519ZM18.4441 6.3379C18.5742 6.21517 18.6784 6.06758 18.7504 5.90388C18.8225 5.74017 18.8609 5.56367 18.8636 5.38483C18.8662 5.20599 18.8329 5.02845 18.7656 4.86271C18.6984 4.69697 18.5986 4.54641 18.4721 4.41994C18.3456 4.29347 18.1951 4.19366 18.0293 4.12642C17.8636 4.05918 17.686 4.02588 17.5072 4.02849C17.3284 4.03109 17.1519 4.06956 16.9882 4.1416C16.8245 4.21364 16.6769 4.3178 16.5541 4.4479C16.3154 4.70093 16.1848 5.03702 16.1898 5.38483C16.1949 5.73264 16.3353 6.06478 16.5813 6.31075C16.8273 6.55671 17.1594 6.69713 17.5072 6.7022C17.855 6.70727 18.1911 6.57659 18.4441 6.3379V6.3379Z" fill="white"/>
</svg>
