<svg width="27" height="27" viewBox="0 0 27 27" fill="none" xmlns="http://www.w3.org/2000/svg">
<circle cx="13.3947" cy="13.2019" r="12.9584" fill="white"/>
<path d="M9.39454 9.20186C9.39454 8.67143 9.60525 8.16272 9.98033 7.78765C10.3554 7.41257 10.8641 7.20186 11.3945 7.20186H15.3945C15.925 7.20186 16.4337 7.41257 16.8088 7.78765C17.1838 8.16272 17.3945 8.67143 17.3945 9.20186V17.2019C17.3945 17.7323 17.1838 18.241 16.8088 18.6161C16.4337 18.9911 15.925 19.2019 15.3945 19.2019H11.3945C10.8641 19.2019 10.3554 18.9911 9.98033 18.6161C9.60525 18.241 9.39454 17.7323 9.39454 17.2019V9.20186ZM14.3945 16.2019C14.3945 15.9366 14.2892 15.6823 14.1016 15.4948C13.9141 15.3072 13.6598 15.2019 13.3945 15.2019C13.1293 15.2019 12.875 15.3072 12.6874 15.4948C12.4999 15.6823 12.3945 15.9366 12.3945 16.2019C12.3945 16.4671 12.4999 16.7214 12.6874 16.909C12.875 17.0965 13.1293 17.2019 13.3945 17.2019C13.6598 17.2019 13.9141 17.0965 14.1016 16.909C14.2892 16.7214 14.3945 16.4671 14.3945 16.2019ZM7.20154 9.93586C7.2636 9.81863 7.27655 9.68156 7.23754 9.55478C7.19854 9.42801 7.11077 9.32192 6.99354 9.25986C6.87631 9.1978 6.73924 9.18485 6.61246 9.22386C6.48569 9.26286 6.3796 9.35063 6.31754 9.46786C5.70953 10.6185 5.39262 11.9005 5.39454 13.2019C5.39454 14.5489 5.72854 15.8199 6.31754 16.9359C6.34827 16.9939 6.39013 17.0453 6.44073 17.0872C6.49134 17.1291 6.54969 17.1606 6.61246 17.1799C6.67523 17.1992 6.7412 17.2059 6.80658 17.1998C6.87197 17.1936 6.9355 17.1746 6.99354 17.1439C7.05158 17.1131 7.10301 17.0713 7.14487 17.0207C7.18674 16.9701 7.21823 16.9117 7.23754 16.8489C7.25686 16.7862 7.26362 16.7202 7.25744 16.6548C7.25126 16.5894 7.23227 16.5259 7.20154 16.4679C6.66978 15.4615 6.39271 14.3401 6.39454 13.2019C6.39454 12.0219 6.68654 10.9099 7.20154 9.93586ZM20.4715 9.46786C20.4095 9.35063 20.3034 9.26286 20.1766 9.22386C20.0498 9.18485 19.9128 9.1978 19.7955 9.25986C19.6783 9.32192 19.5905 9.42801 19.5515 9.55478C19.5125 9.68156 19.5255 9.81863 19.5875 9.93586C20.1025 10.9099 20.3945 12.0209 20.3945 13.2019C20.3945 14.3819 20.1025 15.4939 19.5875 16.4679C19.5255 16.5851 19.5125 16.7222 19.5515 16.8489C19.5905 16.9757 19.6783 17.0818 19.7955 17.1439C19.9128 17.2059 20.0498 17.2189 20.1766 17.1799C20.3034 17.1409 20.4095 17.0531 20.4715 16.9359C21.0796 15.7853 21.3965 14.5032 21.3945 13.2019C21.3965 11.9005 21.0796 10.6185 20.4715 9.46786V9.46786ZM8.73454 11.3839C8.76244 11.3221 8.77749 11.2552 8.77875 11.1874C8.78002 11.1196 8.76748 11.0523 8.7419 10.9895C8.71632 10.9267 8.67823 10.8697 8.62996 10.8221C8.58168 10.7745 8.52422 10.7372 8.46108 10.7125C8.39793 10.6878 8.33042 10.6762 8.26265 10.6784C8.19487 10.6806 8.12825 10.6965 8.06684 10.7253C8.00543 10.754 7.95051 10.795 7.90541 10.8456C7.86032 10.8962 7.826 10.9555 7.80454 11.0199C7.53301 11.7153 7.39395 12.4553 7.39454 13.2019C7.39454 13.9709 7.53954 14.7069 7.80454 15.3839C7.826 15.4482 7.86032 15.5075 7.90541 15.5581C7.95051 15.6088 8.00543 15.6497 8.06684 15.6785C8.12825 15.7072 8.19487 15.7232 8.26265 15.7254C8.33042 15.7276 8.39793 15.7159 8.46108 15.6912C8.52422 15.6665 8.58168 15.6292 8.62996 15.5816C8.67823 15.534 8.71632 15.477 8.7419 15.4142C8.76748 15.3514 8.78002 15.2841 8.77875 15.2163C8.77749 15.1485 8.76244 15.0817 8.73454 15.0199C8.50882 14.4404 8.3935 13.8238 8.39454 13.2019C8.39454 12.5599 8.51454 11.9469 8.73454 11.3839ZM18.9845 11.0199C18.9318 10.903 18.8362 10.8109 18.7175 10.7626C18.5987 10.7142 18.466 10.7133 18.3466 10.76C18.2272 10.8067 18.1304 10.8975 18.076 11.0136C18.0217 11.1297 18.014 11.2623 18.0545 11.3839C18.2745 11.9469 18.3945 12.5599 18.3945 13.2019C18.3945 13.8439 18.2745 14.4569 18.0545 15.0199C18.014 15.1415 18.0217 15.274 18.076 15.3901C18.1304 15.5062 18.2272 15.597 18.3466 15.6437C18.466 15.6904 18.5987 15.6895 18.7175 15.6412C18.8362 15.5928 18.9318 15.5007 18.9845 15.3839C19.2505 14.7069 19.3945 13.9709 19.3945 13.2019C19.3945 12.4329 19.2495 11.6969 18.9845 11.0199V11.0199Z" fill="black"/>
</svg>
