<svg width="23" height="23" viewBox="0 0 23 23" fill="none" xmlns="http://www.w3.org/2000/svg">
<path fill-rule="evenodd" clip-rule="evenodd" d="M7.00113 0.215902C8.17413 0.161902 8.54813 0.149902 11.5361 0.149902C14.5241 0.149902 14.8981 0.162902 16.0701 0.215902C17.2421 0.268902 18.0421 0.455902 18.7421 0.726902C19.4751 1.0039 20.1401 1.4369 20.6901 1.9969C21.2501 2.5459 21.6821 3.2099 21.9581 3.9439C22.2301 4.6439 22.4161 5.4439 22.4701 6.6139C22.5241 7.7889 22.5361 8.1629 22.5361 11.1499C22.5361 14.1379 22.5231 14.5119 22.4701 15.6849C22.4171 16.8549 22.2301 17.6549 21.9581 18.3549C21.6821 19.089 21.2494 19.7541 20.6901 20.3039C20.1401 20.8639 19.4751 21.2959 18.7421 21.5719C18.0421 21.8439 17.2421 22.0299 16.0721 22.0839C14.8981 22.1379 14.5241 22.1499 11.5361 22.1499C8.54813 22.1499 8.17413 22.1369 7.00113 22.0839C5.83113 22.0309 5.03113 21.8439 4.33113 21.5719C3.59705 21.2959 2.93195 20.8632 2.38213 20.3039C1.82251 19.7546 1.38945 19.0898 1.11313 18.3559C0.842133 17.6559 0.656133 16.8559 0.602133 15.6859C0.548133 14.5109 0.536133 14.1369 0.536133 11.1499C0.536133 8.1619 0.549133 7.7879 0.602133 6.6159C0.655133 5.4439 0.842133 4.6439 1.11313 3.9439C1.38986 3.20998 1.82325 2.54522 2.38313 1.9959C2.93217 1.4364 3.5966 1.00335 4.33013 0.726902C5.03013 0.455902 5.83113 0.269902 7.00113 0.215902ZM15.9811 2.1959C14.8211 2.1429 14.4731 2.1319 11.5361 2.1319C8.59913 2.1319 8.25113 2.1429 7.09113 2.1959C6.01813 2.2449 5.43613 2.4239 5.04813 2.5749C4.53513 2.7749 4.16813 3.0119 3.78313 3.3969C3.41818 3.75195 3.13731 4.18418 2.96113 4.6619C2.81013 5.0499 2.63113 5.6319 2.58213 6.7049C2.52913 7.8649 2.51813 8.2129 2.51813 11.1499C2.51813 14.0869 2.52913 14.4349 2.58213 15.5949C2.63113 16.6679 2.81013 17.2499 2.96113 17.6379C3.13713 18.1149 3.41813 18.5479 3.78313 18.9029C4.13813 19.2679 4.57113 19.5489 5.04813 19.7249C5.43613 19.8759 6.01813 20.0549 7.09113 20.1039C8.25113 20.1569 8.59813 20.1679 11.5361 20.1679C14.4741 20.1679 14.8211 20.1569 15.9811 20.1039C17.0541 20.0549 17.6361 19.8759 18.0241 19.7249C18.5371 19.5249 18.9041 19.2879 19.2891 18.9029C19.6541 18.5479 19.9351 18.1149 20.1111 17.6379C20.2621 17.2499 20.4411 16.6679 20.4901 15.5949C20.5431 14.4349 20.5541 14.0869 20.5541 11.1499C20.5541 8.2129 20.5431 7.8649 20.4901 6.7049C20.4411 5.6319 20.2621 5.0499 20.1111 4.6619C19.9111 4.1489 19.6741 3.7819 19.2891 3.3969C18.9341 3.03197 18.5018 2.75111 18.0241 2.5749C17.6361 2.4239 17.0541 2.2449 15.9811 2.1959Z" fill="white"/>
<path d="M17.0234 11.7799V15.8372H14.6716V12.0509C14.6716 11.1005 14.3313 10.4519 13.4797 10.4519C12.83 10.4519 12.4426 10.8887 12.2725 11.3123C12.2111 11.4638 12.1946 11.6745 12.1946 11.8852V15.8372H9.84164C9.84164 15.8372 9.87347 9.42581 9.84164 8.76185H12.1946V9.76383L12.1792 9.78688H12.1946V9.76493C12.5074 9.28205 13.0649 8.59504 14.3149 8.59504C15.8623 8.59504 17.0234 9.60689 17.0234 11.7799V11.7799ZM7.38005 5.34985C6.57561 5.34985 6.04883 5.87883 6.04883 6.57242C6.04883 7.25285 6.56024 7.79609 7.34932 7.79609H7.36468C8.18558 7.79609 8.6959 7.25175 8.6959 6.57242C8.68053 5.87883 8.18558 5.34985 7.38005 5.34985ZM6.18821 15.8372H8.54116V8.76185H6.18821V15.8372V15.8372Z" fill="white"/>
</svg>
