<svg width="27" height="27" viewBox="0 0 27 27" fill="none" xmlns="http://www.w3.org/2000/svg">
<circle cx="13.3947" cy="13.7775" r="12.9584" fill="white"/>
<path d="M19.4933 11.3936V16.8269C19.4933 17.3323 19.2925 17.8171 18.9351 18.1745C18.5776 18.5319 18.0929 18.7327 17.5874 18.7327H9.20153C8.69606 18.7327 8.21129 18.5319 7.85387 18.1745C7.49645 17.8171 7.29565 17.3323 7.29565 16.8269V11.3936L13.2008 14.8684C13.2595 14.903 13.3264 14.9212 13.3945 14.9212C13.4626 14.9212 13.5294 14.903 13.5881 14.8684L19.4933 11.3936ZM17.5874 8.82218C18.0563 8.82211 18.5089 8.99494 18.8584 9.3076C19.2079 9.62027 19.4299 10.0508 19.4818 10.5169L13.3945 14.0977L7.30709 10.5169C7.35905 10.0508 7.58102 9.62027 7.93054 9.3076C8.28005 8.99494 8.73257 8.82211 9.20153 8.82218H17.5874Z" fill="black"/>
</svg>
