<svg width="174" height="164" viewBox="0 0 174 164" fill="none" xmlns="http://www.w3.org/2000/svg">
<g opacity="0.7">
<path fill-rule="evenodd" clip-rule="evenodd" d="M90.2078 10.195C89.4431 12.226 88.6789 14.2574 87.9143 16.2885C87.4241 17.5901 86.9344 18.8914 86.4445 20.193C86.2706 20.6545 86.174 21.1279 85.8379 21.4482C85.0459 22.2026 83.6243 22.6826 82.6723 23.2133C82.0346 23.5689 81.3967 23.9244 80.7591 24.28C80.4302 24.4635 79.7011 24.6939 79.4706 24.9984C79.2171 25.3339 79.337 25.9501 79.337 26.414V30.4197V37.9674C82.6311 37.554 85.9254 37.1409 89.2195 36.7276C84.8307 41.8102 80.4421 46.8925 76.0532 51.9751C74.9716 53.2276 73.6584 54.4333 72.8525 55.8906C71.1374 58.9927 69.4608 62.1171 67.7655 65.2301C66.1872 68.1276 64.609 71.0253 63.0308 73.9229L77.2293 73.3163C80.9053 73.1594 84.6817 73.3954 88.2236 72.3497C91.1434 71.4878 94.0629 70.6261 96.9827 69.7642C97.3711 69.6494 98.5807 69.5197 98.856 69.206C99.1137 68.9122 99.1082 67.802 99.1811 67.4261C100.559 60.3168 102.314 52.4825 106.336 46.3629C109.22 41.9761 113.111 38.1353 116.674 34.3099C118.065 32.8168 119.481 31.3417 120.822 29.8033C121.166 29.4093 121.662 28.9622 121.889 28.4836C122.036 28.1744 122.241 27.5852 122.15 27.3107C122.111 27.1917 121.194 26.7647 121.062 26.6799C120.133 26.0805 119.212 25.4685 118.289 24.8595C115.695 23.1481 113.104 21.4324 110.496 19.7437C108.462 18.427 106.434 17.0309 104.289 15.8994C102.066 14.7265 99.6172 13.9011 97.2861 12.9744C94.9306 12.0378 92.5707 11.112 90.2078 10.195Z" fill="#CCC5B9"/>
<path fill-rule="evenodd" clip-rule="evenodd" d="M170.156 118.702C169.025 119.772 166.965 121.208 165.337 120.555C164.519 120.227 163.82 119.507 163.076 119.043C162.2 118.497 161.378 117.951 160.636 117.224C159.156 115.773 158.035 113.653 156.287 112.517C155.699 112.136 154.552 112.054 154.145 111.444C153.962 111.17 153.945 110.756 153.979 110.439C154.052 109.759 154.418 109.799 153.806 109.299H154.757C154.775 108.93 154.409 108.9 154.135 108.947C154.262 108.363 154.392 106.076 153.33 107.112C152.41 108.011 152.871 109.501 152.219 110.474C151.72 111.219 150.396 110.616 150.218 109.796C150.138 109.428 150.542 108.853 150.59 108.492C150.696 107.691 150.339 106.999 149.822 106.393C148.687 107.152 149.33 108.723 148.684 109.72C148.098 110.622 146.795 110.201 145.904 110.042C144.835 109.852 143.627 110.045 142.605 109.792C141.062 109.409 141.638 107.591 141.486 106.417C141.322 105.159 140.056 103.414 140.436 102.145C140.845 100.783 143.234 100.489 144.376 100.158C146.985 99.4029 150.708 99.2576 152.648 97.1424C154.191 98.8697 155.432 100.848 157.051 102.51C158.799 104.306 160.666 105.965 162.345 107.833C164.091 109.778 165.895 111.685 167.578 113.686C168.312 114.558 168.957 115.499 169.717 116.351C170.392 117.108 171.104 117.805 170.156 118.702ZM92.5868 85.109C93.3888 84.681 93.4908 84.9493 93.4905 85.8308C93.2598 85.4075 93.0308 85.2942 92.5868 85.109ZM85.7876 102.245V100.691C86.5607 100.671 86.0853 102 85.7876 102.245ZM85.5986 104.559C85.5986 103.871 85.5801 103.216 85.7777 102.547C85.8815 103.276 86.0796 103.907 85.5986 104.559ZM88.9226 151.827C89.6327 151.894 90.7269 151.403 91.324 151.962C91.9375 152.537 91.8883 154.209 92.0336 154.985C92.2738 156.268 92.4865 157.555 92.6888 158.844C92.8215 159.689 92.9856 160.547 92.0336 160.871C90.6268 161.348 88.6167 160.667 87.1504 160.605C84.2538 160.482 81.3585 160.312 78.4594 160.253C75.6496 160.196 72.8333 160.241 70.0363 160.535C68.7728 160.667 67.5373 160.901 66.2866 161.113C65.6275 161.225 63.8612 161.692 63.2658 161.134C62.1456 160.085 64.008 157.633 64.8089 156.941C66.2955 155.656 68.4096 154.73 70.2737 154.172C71.2699 153.874 72.9306 153.036 73.7153 153.973C74.3174 154.691 74.2935 155.65 75.1562 156.194C77.1552 157.456 75.9856 153.838 74.7364 153.393C75.5752 151.422 77.174 154.204 77.8371 154.872C78.073 155.11 78.8404 155.894 79.1737 155.5C79.4232 155.205 78.9249 154.148 78.8325 153.86C78.6922 153.423 78.3371 152.759 78.4392 152.285C78.624 151.427 79.8222 151.194 80.54 151.122C81.653 151.012 82.7448 151.366 83.8452 151.484C85.5326 151.666 87.2332 151.668 88.9226 151.827ZM77.7474 71.0613C75.5503 71.2369 73.3393 70.8996 71.1474 71.1756C69.0735 71.437 67.1192 72.2012 65.1642 72.9032C68.0707 66.0615 71.831 59.8333 76.4142 53.9988C78.6966 51.0929 81.1514 48.207 83.6176 45.4568C84.7652 44.1773 85.9521 42.9402 87.1371 41.6966C88.194 40.5872 88.9513 38.7031 90.2197 37.8747C91.3023 37.1675 93.1943 37.6718 94.3941 37.7157C95.7502 37.7653 97.4006 37.889 98.7231 37.436C99.6815 37.1077 99.9451 36.2316 98.7454 36.2026C97.3304 36.1681 95.9387 36.3162 94.5052 36.183C90.7911 35.8386 87.2109 35.2725 83.4667 35.5936C82.6089 35.667 81.4798 36.0337 80.6381 35.9236C80.0327 35.8441 80.4308 36.1495 80.01 35.662C79.8489 35.4756 79.6547 35.0372 79.6071 34.7894C79.339 33.3981 80.1002 31.4099 80.2823 30.0091C80.4508 28.7127 80.3015 27.2879 80.6168 26.0255C80.9039 24.8766 81.779 24.7234 82.8567 24.6007C85.8049 24.2647 88.8136 24.0859 91.7752 23.8327C98.5339 23.2549 105.507 22.3833 112.22 23.8111C114.644 24.3266 117.6 25.1239 119.765 26.4004C120.442 26.7994 121.125 27.2693 120.879 28.096C120.623 28.9542 119.371 29.8608 118.75 30.4262C114.165 34.604 109.736 38.8653 106.515 44.2259C102.408 51.0616 100.051 58.4444 98.6675 66.2775C98.3701 67.9627 98.0938 68.8447 96.3664 69.3297C94.5119 69.8507 92.7219 70.1892 90.799 70.3476C86.4522 70.706 82.092 70.7134 77.7474 71.0613ZM79.2197 25.7921C78.8866 28.2805 78.4357 30.7634 78.3912 33.2714C78.3744 34.2186 78.285 34.6932 77.2814 34.9045C76.0982 35.1535 74.8953 35.3389 73.7067 35.5973C67.9701 36.8451 62.342 38.3775 56.7297 40.1024C51.2753 41.7792 45.9105 43.6655 40.3336 44.9076C37.9346 45.4419 35.1274 45.802 32.9424 46.985C30.5918 48.2581 30.9012 50.3453 30.6902 52.6377C30.4083 55.7006 29.5033 58.6663 29.1851 61.728C29.0329 63.191 28.8943 64.6627 28.9172 66.1349C28.9368 67.3899 29.1159 68.7775 28.2754 69.8336C26.5892 67.5711 25.7899 64.7255 25.4576 61.9524C25.296 60.6045 25.36 59.2456 25.3138 57.8914C25.2765 56.8011 25.3007 55.0668 24.5931 54.1563C23.0549 52.1775 21.0544 60.1075 20.8642 60.9544C20.5443 62.3797 20.2804 63.8169 19.9617 65.2425C19.8204 65.8743 19.639 68.1712 18.7955 68.4001C17.0476 68.8747 17.4313 63.9448 17.4036 63.1942C17.3482 61.6792 17.3107 60.1623 17.346 58.646C17.3717 57.5515 17.5827 56.3637 17.4574 55.2687C17.1499 52.5799 15.6435 55.4127 15.22 56.4135C14.15 58.9401 13.666 61.6444 12.7064 64.2114C12.5468 64.6384 12.1718 66.0759 11.5776 66.1027C10.9164 66.1322 10.9216 64.6476 10.8838 64.2139C10.6644 61.6997 9.92348 59.2032 10.1471 56.663C10.3729 54.098 11.2687 51.4611 12.5364 49.2301C15.2166 44.5133 20.0566 41.805 24.6925 39.3379C29.9979 36.5151 35.5991 34.2848 41.3198 32.468C48.2001 30.2829 55.2646 28.5148 62.3716 27.2566C65.9874 26.6166 69.659 26.1589 73.3119 25.7919C74.5956 25.663 75.8799 25.5876 77.147 25.3423C77.6254 25.2496 79.3511 24.8089 79.2197 25.7921ZM82.9155 17.7394C81.1028 17.7537 79.251 16.8717 77.485 16.5072C75.3825 16.0728 73.3292 15.4442 71.2304 14.9906C67.1205 14.1027 63.0083 13.2367 58.9021 12.3292C57.1196 11.9352 55.3284 11.5922 53.5527 11.169C51.653 10.7162 49.6007 10.2114 47.6563 10.6991C44.7091 11.4386 43.4641 14.6747 42.382 17.2003C41.6176 18.9842 41.0187 20.9726 39.8266 22.5249C39.4021 23.0784 38.7988 23.7385 38.0292 23.5592C36.5994 23.2264 36.8265 21.3275 37.0086 20.2778C37.2724 18.7545 37.6463 17.2491 37.9454 15.7328C38.066 15.1208 39.0004 11.1154 37.3322 11.7355C36.0947 12.1955 35.44 15.2252 34.9715 16.3073C34.6234 17.1115 34.2546 17.9105 33.864 18.6948C33.3427 19.741 31.8553 23.2366 30.2086 22.7858C27.8522 22.1406 30.1125 15.9227 30.514 14.6122C30.7344 13.8929 33.1297 8.43739 31.108 8.88323C30.2469 9.07343 29.4082 10.6785 28.9691 11.3438C28.1906 12.5238 27.4146 13.7123 26.6818 14.9214C25.928 16.165 25.5431 17.5804 24.7955 18.8059C24.4022 19.4508 23.5994 20.3103 22.8158 19.7132C21.594 18.7831 22.3182 15.5476 22.5321 14.3241C22.9302 12.0495 23.9189 9.71765 25.2755 7.85813C27.3141 5.06402 31.1606 4.16117 34.3951 3.61836C38.5703 2.9176 42.8035 3.10928 46.9961 3.52389C51.7113 3.99032 56.3547 4.48972 61.0024 5.44341C65.6865 6.40454 70.373 7.35798 74.985 8.62907C77.1577 9.22791 79.3615 9.75881 81.5033 10.4618C83.7802 11.2089 86.0023 12.1387 88.3427 12.6771C87.5195 14.7389 86.696 16.8008 85.8728 18.8629C85.0849 18.0806 84.0095 17.7304 82.9155 17.7394ZM123.267 23.4211C123.989 23.0248 124.786 22.8378 125.049 21.962C125.282 21.1881 124.884 20.3113 124.694 19.5684C124.162 17.4884 124.022 15.3338 124.493 13.2293C124.943 13.9189 126.628 16.5714 127.653 14.9656C128.271 13.997 126.615 12.6037 126.131 11.9228C127.192 11.2657 128.707 9.50217 129.93 10.5657C130.72 11.2533 131.054 11.9153 132.119 12.2496C133.411 12.6555 134.628 12.5625 135.948 12.4504C136.872 12.3721 137.095 12.2483 137.456 12.9625C137.739 13.5239 137.885 14.2187 138.051 14.8215C138.377 16.01 139.132 18.3518 138.238 19.4652C137.455 20.4405 134.414 19.6043 133.992 20.8633C133.762 21.5499 134.861 21.5744 135.281 21.9142C135.801 22.3347 136.231 23.004 136.513 23.6018C136.723 24.044 137.041 24.7745 136.685 25.2265C136.193 25.8519 135.28 25.3775 134.884 24.923C134.357 24.3192 134.186 23.4937 133.746 22.8361C132.94 21.6295 132.892 22.5894 132.672 23.4558C132.444 24.3559 131.904 24.2939 131.078 24.4095C129.628 24.6126 128.162 24.899 126.751 25.289C126.027 25.4889 125.326 25.7435 124.637 26.0411C124.193 26.2325 123.424 26.8125 122.942 26.818C122.049 26.8282 121.43 25.3297 120.97 24.7046C121.735 24.2758 122.498 23.8431 123.267 23.4211ZM171.204 115.175C168.975 112.489 167.044 109.571 164.844 106.862C162.675 104.189 160.165 101.853 157.73 99.4321C156.581 98.2897 155.48 97.0365 154.212 96.0243C153.265 95.269 152.537 95.2573 151.399 95.5918C148.165 96.5426 144.872 97.6869 141.811 99.1056C138.961 100.427 136.365 102.123 133.275 102.86C130.12 103.612 126.84 103.853 123.606 103.667C120.29 103.476 117.162 102.783 114.008 101.765C111.021 100.801 107.906 99.9593 105.352 98.0485C102.673 96.0454 100.604 93.1642 98.687 90.4544C97.7163 89.0827 96.7528 87.642 96.0988 86.0872C95.5313 84.738 95.1605 83.1456 94.1421 82.0458C93.8923 82.4011 93.5815 82.7059 93.4545 83.1232C93.3967 83.3129 93.7371 83.307 93.7023 83.4577C93.6363 83.7417 93.2598 84.0313 93.0409 84.1858C92.2545 84.7412 92.2498 84.2991 92.4561 85.3378C92.5762 85.9434 92.3489 87.3094 91.3651 86.8631C91.7273 87.2983 91.1518 87.8475 90.9638 88.2061C90.8346 88.0571 90.6738 88.0052 90.4816 88.0501C90.8413 88.7692 90.6288 88.7883 90.2802 89.3594C90.2165 89.4638 89.9909 90.0101 90.0233 89.9639C89.667 90.4733 89.2554 90.6015 89.0476 91.2358C88.8769 91.7568 88.9206 92.3296 88.7304 92.8498C88.5004 92.5307 88.2703 92.2115 88.0403 91.8927C88.0873 92.1436 88.1812 92.515 88.2904 92.7427C88.359 92.885 88.6535 93.2173 88.6496 93.2949C88.6335 93.585 88.2728 93.5154 88.17 93.7656C87.9771 94.235 88.256 94.3041 88.1508 94.7621C88.0302 95.2878 87.7065 95.0776 87.5526 95.5256C87.5235 95.6107 87.7508 95.9454 87.7147 96.1289C87.664 96.3883 87.4298 96.5334 87.3471 96.764C87.1366 97.3507 87.2131 97.7802 86.9209 98.3428C86.8077 98.561 86.6429 98.7063 86.5631 98.9543C86.4932 99.1725 86.6437 99.637 86.5088 99.8324C85.857 100.774 85.9487 99.1517 85.9981 98.7492C86.4129 95.3702 87.7439 91.8827 88.9619 88.7244C89.5672 87.1552 90.1562 85.537 90.9152 84.034C91.2205 83.4287 91.5731 82.8041 92.0778 82.3411C92.7163 81.7554 93.622 81.5211 94.2001 80.867C94.1089 80.9701 94.8269 80.2882 94.712 80.5124C94.8148 80.312 94.6354 80.0407 94.6992 79.8468C94.7785 79.6061 94.9285 79.5555 95.0955 79.3447C95.3957 78.9663 95.7522 78.7778 95.2808 78.2958C95.9805 78.1406 96.315 77.9127 96.4548 77.1606C96.5569 76.6103 96.3508 76.6463 96.7105 76.2795C97.0715 75.9111 97.2543 76.1987 97.4819 75.5607C97.7539 74.7972 97.9345 73.7589 98.0975 72.96C98.2399 72.2625 97.8945 71.2366 98.4803 70.7441C99.2222 70.1205 99.886 70.3846 99.7531 69.1304C99.6234 67.9076 100.002 67.1669 100.382 66.0099C101.142 63.7001 101.435 61.2613 102.101 58.924C103.522 53.9358 106.032 49.4384 108.73 45.0477C111.224 40.9904 114.711 37.5337 118.078 34.2047C118.999 33.2929 119.911 32.368 120.739 31.3685C121.452 30.5078 121.777 29.3359 122.463 28.5188C122.879 28.0226 123.654 27.8104 124.235 27.5473C125.205 27.1084 126.36 26.5358 127.454 26.6246C127.02 28.0958 126.878 29.8149 128.161 30.9182C129.718 32.2564 131.129 30.8661 132.556 30.1031C135.157 28.7122 138.877 29.989 141.145 27.9043C141.685 27.4079 141.836 26.6147 142.397 26.151C142.809 25.811 143.396 25.7247 143.86 25.4713C145.269 24.7013 145.953 23.2919 145.405 21.7349C144.903 20.3115 144.124 19.8178 145.858 19.0965C147.267 18.5113 147.802 17.6295 147.165 16.0596C146.557 14.5629 145.443 14.3905 144.39 13.4111C143.369 12.4623 144.542 11.3582 145.306 10.646C146.292 9.72732 146.48 8.89935 145.338 7.94393C144.141 6.94362 142.432 6.97859 141.037 7.47328C139.459 8.03245 138.42 8.96209 137.753 10.4685C137.073 12.0021 135.387 11.5741 134.023 11.1467C132.717 10.738 132.378 9.85626 131.521 8.90679C130.567 7.85069 128.625 8.7538 127.501 9.23634C124.732 10.4241 121.98 12.2987 121.87 15.6192C121.804 17.5993 122.639 19.2822 123.072 21.1407C123.469 22.8403 120.749 22.7064 120.278 24.3505C115.252 21.6803 109.655 20.8633 104.038 20.6815C98.0669 20.4881 92.0101 20.3331 86.0903 21.2784C87.4644 18.8756 88.19 16.2406 89.3856 13.7721C89.7297 13.0614 89.878 13.1222 90.6375 13.3369C92.0964 13.7493 93.5444 14.2108 95.0004 14.6355C100.319 16.1873 105.533 18.057 110.676 20.1047C111.176 20.3039 112.292 20.8566 112.73 20.2555C113.236 19.5624 112.066 18.7079 111.593 18.3593C109.522 16.8345 106.956 15.9091 104.637 14.8394C99.5661 12.5013 93.9513 11.3914 88.6607 9.65491C77.2392 5.90538 65.4231 3.05771 53.5537 1.17686C50.6571 0.717874 47.7297 0.650674 44.8205 0.309965C42.2436 0.00818746 39.662 0.0151308 37.0854 0.326827C32.3265 0.902859 26.8093 2.14568 24.1215 6.51786C21.6951 10.4655 20.0753 14.9038 20.6945 19.5865C20.8805 20.993 21.474 22.6586 23.2032 22.296C24.4027 22.0446 25.0396 21.0217 25.5965 20.0234C26.438 18.5153 27.2691 17.0071 28.181 15.5394C28.5192 17.7401 27.2901 19.9041 27.4833 22.146C27.6147 23.6673 28.4523 26.0709 30.4201 25.6401C33.1173 25.05 34.2274 20.8209 35.5242 18.792C35.5899 20.3547 35.0442 21.8948 35.2112 23.461C35.376 25.0081 36.5804 26.4686 38.2721 26.2566C39.8676 26.0567 40.9045 24.341 41.5822 23.0494C42.5253 21.2518 43.2027 19.3246 44.1238 17.5152C44.987 15.8191 46.0096 13.7999 48.0706 13.4812C49.91 13.1966 52.0179 13.8554 53.8348 14.1272C58.8747 14.881 63.813 16.1645 68.7978 17.2015C74.1425 18.3132 79.6135 18.9884 84.7934 20.7822C82.9721 23.2703 78.2057 22.7327 75.4924 22.9998C71.3922 23.4035 67.2393 23.7072 63.1623 24.3028C59.1356 24.891 55.1932 25.9352 51.1979 26.6933C47.2237 27.4473 43.2563 28.2026 39.4108 29.4886C32.2709 31.8763 25.0119 34.898 18.7212 39.0642C15.7942 41.0028 13.1941 43.2184 11.3861 46.2783C9.56648 49.3573 8.69212 52.8391 8.35858 56.3808C8.15105 58.5862 8.50361 60.4949 8.9293 62.6413C9.23763 64.1953 9.33745 66.7972 10.5789 67.9352C12.9485 70.1071 14.9159 61.2973 15.3534 60.2333C15.6685 61.977 15.1533 71.8005 18.9554 71.0015C20.6522 70.6452 21.0371 68.3076 21.3186 66.8996C21.832 64.3329 22.2917 61.7146 23.1698 59.2426C23.7334 62.5733 23.9683 66.0434 25.1824 69.2246C25.9888 71.3373 28.2897 75.0861 29.8939 71.4692C31.0971 68.7567 30.6842 65.6434 30.8285 62.7635C30.9884 59.5722 31.9013 56.4939 32.2244 53.3338C32.3497 52.1096 32.2363 50.7299 33.462 50.0618C34.5142 49.4885 36.0529 49.3018 37.2018 48.9817C40.6046 48.0334 44.0296 47.1618 47.4164 46.1558C50.8046 45.1491 54.1459 43.973 57.4889 42.8251C60.6862 41.7274 63.9506 41.1032 67.1867 40.1632C69.0266 39.6285 70.8442 39.0694 72.7098 38.623C73.578 38.4155 74.4568 38.2538 75.323 38.0388C75.9651 37.8796 76.811 37.2788 77.4712 37.2895C78.1506 37.3006 78.4058 37.8779 79.1851 37.9233C80.0238 37.9719 80.8767 37.7861 81.7108 37.7219C83.7429 37.5654 85.903 37.3125 87.9304 37.5952C86.7119 39.0458 85.0662 40.0486 83.6238 41.2503C81.9603 42.6362 80.3505 44.1326 78.9296 45.7692C76.0706 49.0623 73.3684 52.543 70.858 56.1105C68.3817 59.6299 66.3879 63.4811 64.6545 67.4159C63.7908 69.3766 62.9522 71.3802 62.3556 73.4411C62.1105 74.2876 61.9104 75.1374 61.4679 75.9073C61.062 76.6136 60.49 77.2223 60.9698 78.0751C61.3001 77.8675 61.5969 77.6097 61.8956 77.3604C61.5504 79.8007 60.8055 82.1614 60.4226 84.5942C60.045 86.9911 60.0604 89.4561 60.0848 91.8768C60.1362 96.9462 60.5118 101.901 61.5363 106.873C62.5725 111.901 63.9037 116.891 65.5822 121.742C67.198 126.412 68.8195 131.31 71.075 135.711C73.4838 140.413 76.3495 145.356 79.8363 149.336C77.5586 150.272 74.6601 150.097 72.2483 150.474C69.7272 150.868 67.5464 151.612 65.3979 153.012C63.2243 154.429 62.0443 156.253 61.7439 158.837C61.5304 160.675 60.8962 163.221 63.2996 163.704C65.0283 164.052 66.9609 163.481 68.693 163.34C71.723 163.093 74.7572 162.939 77.7941 162.806C80.8229 162.674 83.8523 162.557 86.8821 162.463C88.3071 162.418 89.733 162.396 91.1575 162.345C91.7959 162.322 92.1831 162.312 92.7555 162.497C93.2082 162.644 93.175 162.948 93.6791 162.572C94.4919 161.965 94.3246 160.052 94.3019 159.211C94.2673 157.913 94.1448 156.6 93.8925 155.326C93.7428 154.569 91.9254 149.691 93.3386 149.486C91.6969 147.675 91.0412 145.09 90.3037 142.82C89.3797 139.977 88.5685 137.142 87.9319 134.217C86.5718 127.971 85.9707 121.656 85.9707 115.265C92.2752 119.165 98.9457 121.278 106.371 121.513C113.754 121.748 121.865 121.139 128.876 118.674C132.122 117.532 135.03 116.033 137.813 114.013C138.811 113.29 139.88 111.65 141.189 111.678C142.752 111.712 144.502 112.305 146.054 112.559C149.021 113.045 152.895 113.319 155.407 115.161C156.772 116.162 157.75 117.563 158.968 118.716C159.895 119.593 161.12 120.07 162.04 120.947C163.032 121.893 162.638 123.13 164.283 123.207C165.689 123.272 167.231 122.704 168.444 122.037C170.864 120.708 173.441 117.869 171.204 115.175Z" fill="#CCC5B9"/>
<path fill-rule="evenodd" clip-rule="evenodd" d="M147.946 51.9214C151.487 54.4459 155.549 56.1705 159.249 58.4442C160.176 59.0133 163.061 60.1948 163.033 61.2504C163.017 61.8676 162.15 62.6415 161.77 63.0693C161.12 63.802 160.508 64.5425 159.907 65.3176C157.159 68.8673 154.572 72.4504 151.594 75.8218C151.145 76.3289 149.795 78.7503 149.358 77.5477C149.161 77.0024 149.324 76.3897 148.808 75.8813C148.543 75.6195 147.519 75.4751 147.817 74.9135C148.016 75.0033 148.215 75.0933 148.414 75.1828C148.26 74.734 148.271 74.2422 148.039 73.818C147.895 73.5544 147.614 73.4296 147.516 73.1328C147.381 72.7227 147.61 72.2461 147.572 71.8233C147.534 71.4018 147.316 71.0033 147.187 70.6055C146.416 68.2479 146.139 65.8711 145.745 63.4385C145.355 61.0315 144.747 58.6998 144.508 56.266C144.256 53.6953 143.947 51.1298 143.534 48.5797C144.27 48.6834 144.836 49.4861 145.357 49.9398C146.175 50.653 147.063 51.292 147.946 51.9214ZM145.17 76.8092C145.001 76.6761 144.869 76.5124 144.773 76.3185C146.509 75.4556 145.462 76.9277 145.17 76.8092ZM144.115 74.9688C143.358 75.1781 142.814 75.2205 142.231 74.908C142.176 74.8785 142.24 74.6502 142.14 74.6033C142.053 74.5626 141.919 74.613 141.845 74.5748C141.591 74.4451 141.146 74.7293 141.103 74.2328C142.068 73.9362 143.018 73.389 144.037 73.2967C145.454 73.1688 145.388 74.6162 144.115 74.9688ZM140.8 72.1072C139.768 72.3495 138.917 72.9154 137.821 72.7676C136.791 72.6292 135.896 72.0934 135.084 71.4759C137.116 70.8986 139.246 70.7945 141.276 70.2361C141.937 70.0543 142.806 69.575 143.518 69.7681C144.309 69.9829 144.359 70.7268 144.596 71.4037C143.33 71.6324 142.054 71.8131 140.8 72.1072ZM134.344 69.2348C133.352 69.4726 132.338 69.9926 131.509 69.0952C131.375 68.9503 131.258 69.0949 131.274 68.6488C131.291 68.1784 131.716 67.8754 132.082 67.7098C132.942 67.3204 134.148 67.5721 135.062 67.5149C136.519 67.4238 138.003 67.1198 139.444 66.8858C140.442 66.7238 141.473 66.3643 142.494 66.4352C143.281 66.49 144.231 67.1637 143.084 67.6552C142.038 68.103 140.471 68.0343 139.338 68.2283C137.664 68.5149 135.996 68.8385 134.344 69.2348ZM133.375 64.5521C133.439 64.6178 133.504 64.6836 133.568 64.7493C133.557 64.7468 133.948 64.4291 134.052 64.42C134.554 64.3761 135.06 64.4108 135.564 64.3823C136.724 64.3166 137.893 64.1137 139.033 63.8903C139.961 63.7083 140.906 63.3946 141.862 63.4732C142.689 63.5412 142.776 63.7113 142.83 64.5125C140.719 64.5125 138.544 64.4678 136.469 64.9164C135.118 65.2083 133.629 66.0776 132.952 64.5105C133.093 64.5244 133.234 64.5382 133.375 64.5521ZM134.695 61.1602C135.219 61.5604 136.646 60.8948 137.274 60.8284C137.955 60.756 138.596 60.6808 139.257 60.5105C139.842 60.3592 141.779 59.6039 142.228 60.3262C142.917 61.4329 140.129 61.636 139.687 61.6908C137.833 61.9207 135.91 62.1245 134.106 62.6125C134.302 62.1285 134.499 61.6444 134.695 61.1602ZM137.238 57.4012C137.373 57.9128 141.566 56.0277 141.642 57.3977C141.701 58.4489 137.494 58.9726 136.738 58.8803C136.915 58.3963 137.386 57.9629 137.238 57.4012ZM138.646 54.1858C138.735 53.154 138.873 53.16 139.697 53.0628C140.326 52.9886 141.19 52.6186 141.026 53.7434C140.886 54.7065 138.556 55.227 138.646 54.1858ZM140.144 50.6356C140.342 50.0817 140.789 50.8273 140.798 51.109C140.823 51.8586 140.257 51.6964 139.712 51.6964C139.864 51.3463 140.008 50.9922 140.144 50.6356ZM147.044 46.4774C146.933 46.343 146.308 46.2917 146.131 46.2265C145.694 46.0658 145.756 45.7234 145.197 46.0611C145.169 46.0328 145.222 45.7789 145.192 45.7673C145.177 45.7613 144.785 45.613 144.658 45.5312C144.351 45.3338 144.074 45.1407 143.792 44.8929C143.492 44.6298 143.191 44.248 142.849 44.0384C142.704 43.9502 142.586 43.8249 142.412 43.7979C141.96 43.728 142.09 44.0439 141.695 44.1066C141.451 44.1453 141.274 43.8601 140.956 43.9831C140.681 44.0893 140.521 44.4763 140.399 44.7067C139.953 45.5451 139.61 46.4474 139.173 47.2948C136.944 51.6275 134.409 55.7959 132.249 60.169C131.208 62.2758 130.123 64.3971 129.391 66.6361C128.863 68.2508 127.67 70.6097 128.696 72.2233C129.442 73.3964 130.935 73.903 132.127 74.4699C133.92 75.3229 135.573 76.4378 137.385 77.2647C139.547 78.2509 141.646 79.2824 143.753 80.3837C144.652 80.8533 145.463 81.5298 146.358 81.9746C146.906 82.2467 147.752 81.7825 147.93 82.4061C148.617 81.5714 149.728 82.1279 150.522 81.5402C150.99 81.1945 151.331 80.5136 151.721 80.0879C152.305 79.4496 152.94 78.8574 153.536 78.2303C155.903 75.7395 158.089 73.1452 160.243 70.4699C162.3 67.9151 164.703 65.5014 166.44 62.7048C167.13 61.5946 167.255 60.4304 166.8 59.2039C166.468 58.3093 165.667 56.9583 164.522 57.5507C164.956 56.8277 163.283 56.0555 162.775 55.9141C162.767 55.9122 162.667 56.4676 162.526 56.4537C162.576 56.4587 162.1 55.2231 161.891 55.0646C161.271 54.5932 160.516 54.0432 159.838 53.6552C159.217 53.2993 158.562 53.123 157.96 52.7248C157.231 52.2422 156.561 51.6699 155.829 51.1906C155.122 50.7279 154.335 50.1809 153.553 49.8627C152.876 49.5867 152.268 49.5327 151.658 49.0804C150.904 48.5207 150.246 48.1411 149.377 47.7555C148.624 47.422 147.582 47.1306 147.044 46.4774Z" fill="#CCC5B9"/>
<path fill-rule="evenodd" clip-rule="evenodd" d="M44.3504 113.489C44.4887 113.163 44.6266 112.837 44.765 112.511C44.9359 113.08 44.9839 113.362 44.3504 113.489ZM44.5344 114.995C44.2348 115.049 44.3529 114.106 44.3529 113.941C44.8705 114.235 44.4418 114.588 44.5344 114.995ZM44.0672 112.273C44.3227 112.122 44.5782 111.971 44.8336 111.819C44.4779 112.481 44.6175 112.067 44.7642 112.509C44.4959 112.587 44.235 112.496 44.0672 112.273ZM42.5532 117.444C41.5956 120.931 38.554 123.681 35.3415 125.106C33.4954 125.924 31.6805 126.129 29.6869 126.038C28.918 126.003 28.0133 125.752 27.2733 125.799C26.7036 125.835 26.7293 125.859 26.2574 126.343C26.0486 125.958 26.1999 125.687 25.7811 125.462C25.2585 125.182 25.0416 125.508 24.7824 125.896C24.4432 125.543 24.3044 125.359 23.8649 125.15C23.8787 125.156 23.4441 125.14 23.4619 125.145C23.3833 125.121 22.9107 124.816 22.7627 124.76C22.1554 124.532 21.4533 124.438 20.8929 124.11C20.4028 123.823 19.9991 123.019 19.4382 123.637C19.4377 122.605 18.0519 122.176 17.4024 121.635C16.3875 120.79 15.5806 119.539 15.0746 118.329C14.535 117.038 14.3549 115.801 14.1024 114.471C13.926 113.541 12.7707 112.198 13.4645 111.26C13.6297 111.653 13.5522 112.056 13.8267 112.413C14.0737 111.935 14.2096 111.4 14.3213 110.877C14.3761 110.621 14.6938 109.869 14.6578 109.646C14.5844 109.189 14.0211 109.164 14.3334 108.604C14.9812 109.312 15.504 108.07 15.0145 107.574C14.7729 107.848 14.6842 108.159 14.5728 108.497C13.9359 107.207 15.6987 107.623 15.313 106.458C15.9563 106.333 16.3262 106.171 16.5708 105.533C16.8428 104.823 16.6427 104.668 17.2603 104.199C17.4728 104.038 18.0737 103.806 18.1836 103.54C18.3963 103.028 17.855 102.876 18.3291 102.396C18.4892 102.678 19.1133 103.236 19.455 102.705C19.5235 102.599 19.2361 102.524 19.4451 102.28C19.7547 101.919 20.1011 101.564 20.6246 101.64C20.21 100.6 22.8591 100.518 23.5375 100.272C24.2174 100.027 24.7943 99.8651 25.5152 99.8081C26.2354 99.751 26.2713 99.5393 26.881 99.1041C26.9326 99.7267 27.0819 99.5898 27.5229 99.6997C27.6289 99.5172 27.7376 99.4966 27.8488 99.6382C27.9594 99.7438 28.0948 99.7934 28.2544 99.7875C28.4966 99.8001 28.7713 99.7684 29.025 99.7736C29.6207 99.7852 30.2351 99.7354 30.8194 99.7481C30.9702 99.7228 31.111 99.6702 31.2429 99.5901C31.298 99.6942 31.3534 99.7986 31.4082 99.903C31.7178 99.942 31.7417 100.331 32.1225 99.9055C32.2351 100.447 32.5588 100.165 32.9007 100.312C33.2125 100.446 33.2622 100.66 33.55 100.81C33.7392 100.964 33.9421 100.984 34.159 100.871C34.3653 101.025 34.5748 101.174 34.7873 101.318C35.1789 101.54 35.6404 101.676 36.053 101.852C36.3275 101.965 36.6002 102.083 36.8708 102.206C36.8789 102.534 37.0254 102.65 37.3101 102.553C37.5673 102.769 37.6396 102.761 37.8892 103.128C38.4545 103.962 38.956 104.609 39.67 105.354C42.7734 108.593 43.7268 113.171 42.5532 117.444ZM43.5057 103.673C42.1046 101.79 40.1214 99.634 38.3393 98.4447C37.4361 97.8417 36.1681 96.7593 35.0635 96.4404C34.8016 96.3648 34.5306 96.3598 34.2731 96.2805C34.0743 96.2192 33.9661 96.0144 33.7392 95.9774C33.5806 95.9517 33.5631 96.308 33.3946 96.2753C33.0423 96.2063 32.8189 95.8554 32.5701 95.636C32.0357 96.5602 31.7457 95.0059 30.961 96.0508C30.0271 94.5811 27.8332 94.9025 26.3419 94.9766C25.8997 94.9985 25.6919 95.1564 25.2998 95.2735C24.9349 95.3823 24.8988 95.3543 24.5003 95.3513C23.5078 95.3436 22.6268 95.4689 21.7095 95.9063C20.1683 96.641 18.7536 97.7859 17.2897 98.6714C15.6537 99.661 14.179 100.921 12.9273 102.368C8.40262 107.602 7.19275 115.241 10.8006 121.308C16.5313 130.944 31.3133 131.974 39.6895 125.436C46.1609 120.384 48.6236 110.551 43.5057 103.673Z" fill="#CCC5B9"/>
<path fill-rule="evenodd" clip-rule="evenodd" d="M114.435 76.5563C114.274 76.9414 112.772 76.8117 112.739 76.3577C112.69 75.6792 114.714 75.887 114.435 76.5563ZM116.03 76.3044C116.881 76.3738 118.28 76.954 119.1 76.6034C120.352 76.0683 119.037 75.247 118.366 75.0015C117.682 74.7518 116.664 74.8845 116.313 74.1674C116.049 73.628 116.702 72.1224 115.891 72.3644C115.041 72.6183 115.288 74.7751 113.954 74.0481C113.318 73.7012 113.577 71.588 112.511 72.6677C112.219 72.963 112.194 73.5053 111.807 73.7255C111.413 73.9504 110.919 73.7161 110.502 73.7357C109.4 73.7875 109.049 74.8223 110.166 75.2326C110.579 75.3847 112.137 75.5701 111.193 76.2481C110.599 76.6751 109.278 75.7789 108.767 76.5223C108.065 77.5435 109.945 77.5665 110.45 77.872C111.306 78.3893 110.599 79.5976 110.667 80.4581C110.772 81.7728 111.533 81.4981 111.809 80.3854C112.044 79.4414 111.753 78.0826 113.171 78.4577C115.48 79.0687 111.887 82.0109 113.578 82.7637C114.657 83.2438 114.81 80.6488 114.893 80.2019C115.203 78.5527 116.126 78.9375 117.525 78.9881C119.158 79.0472 119.553 77.8343 117.823 77.4869C117.271 77.3761 116.512 77.5162 116.032 77.1633C115.749 76.9548 115.359 76.2498 116.03 76.3044Z" fill="#CCC5B9"/>
<path fill-rule="evenodd" clip-rule="evenodd" d="M55.7156 130.186C54.3935 129.711 52.1818 129.814 51.8547 131.528C51.7178 132.245 51.9844 133.004 52.478 133.525C53.0505 134.129 53.9622 134.185 53.9135 133.133C53.8796 132.405 53.1891 131.772 54.4032 131.625C55.1587 131.534 56.2762 132.101 56.3137 132.939C56.3987 134.827 53.1424 134.975 51.9424 134.648C49.5607 134.001 50.2078 131.497 51.8433 130.354C52.2658 130.059 53.4782 129.604 53.5335 128.991C53.6071 128.178 52.605 128.344 52.1139 128.451C48.5035 129.24 47.7166 135.31 51.4891 136.454C53.2022 136.974 55.6148 136.438 56.6472 134.88C57.6152 133.42 57.6283 130.874 55.7156 130.186Z" fill="#CCC5B9"/>
<path fill-rule="evenodd" clip-rule="evenodd" d="M7.84613 87.2145C6.71754 87.7597 5.58895 88.305 4.46061 88.8503C4.08755 88.0491 3.45729 85.8603 2.51104 85.5809C0.979244 85.1283 1.95465 87.5143 2.21901 88.0598C2.43618 88.5079 2.93994 89.2022 2.81764 89.7363C2.65359 90.4559 1.64211 90.7108 1.11266 91.082C-0.197521 92.001 -0.187146 93.9309 1.7103 93.1131C2.78404 92.6502 4.11349 91.3664 4.93646 92.824C5.31644 93.4965 6.21674 97.2537 7.15707 94.7966C7.7389 93.2753 4.93844 91.6948 6.31903 90.4078C6.7635 89.9937 7.28381 89.9587 7.72778 89.7207C8.80004 89.1456 8.19548 88.0831 7.84613 87.2145Z" fill="#CCC5B9"/>
<path fill-rule="evenodd" clip-rule="evenodd" d="M173.301 32.7754C172.628 32.5285 171.796 32.0462 171.048 32.2106C170.253 32.3851 169.933 33.1841 169.355 33.6644C167.784 34.9705 166.869 33.0239 166.006 31.9571C165.191 30.9499 164.196 30.7054 163.046 31.3243C162.587 31.5711 160.657 32.7015 160.993 33.4259C161.235 33.9471 162.189 33.4792 162.515 33.3654C163.221 33.1186 163.877 32.9026 164.599 33.2624C165.955 33.9369 166.306 35.7865 167.946 36.0749C169.641 36.3732 169.697 34.754 170.906 34.1445C171.718 33.7361 172.283 34.4591 173.065 34.3151C173.811 34.1779 174.156 33.0889 173.301 32.7754Z" fill="#CCC5B9"/>
<path fill-rule="evenodd" clip-rule="evenodd" d="M159.614 39.3012C160.214 39.4319 160.605 38.2647 160.98 37.9687C161.603 37.4779 162.682 37.379 163.316 37.8729C164.554 38.837 164.128 40.9185 165.89 41.461C167.466 41.9461 168.208 39.8634 169.534 39.3449C170.305 39.0434 171.152 38.846 170.851 37.7641C170.643 37.016 170.031 36.8238 169.365 37.1112C168.221 37.6046 167.833 39.6149 166.477 39.6509C165.074 39.6881 164.922 37.6579 164.319 36.7737C163.401 35.426 161.513 35.1004 160.44 36.3891C160.117 36.7779 158.472 39.053 159.614 39.3012Z" fill="#CCC5B9"/>
<path fill-rule="evenodd" clip-rule="evenodd" d="M131.88 16.2873C132.714 16.8601 134.376 16.8402 135.144 16.1298C135.926 15.407 134.882 15.2959 134.245 15.3179C133.755 15.3351 132.838 15.5788 133.118 14.7295C133.365 13.9759 134.727 14.3595 134.841 13.5323C133.816 13.3478 132.687 13.4143 131.929 14.2229C131.38 14.8074 131.099 15.7509 131.88 16.2873Z" fill="#CCC5B9"/>
</g>
</svg>
